<svg width="336" height="292" viewBox="0 0 336 292" fill="none" xmlns="http://www.w3.org/2000/svg">
<path d="M183.402 81.319C200.488 81.319 214.34 67.3705 214.34 50.1642C214.34 32.958 200.488 19.0095 183.402 19.0095C166.315 19.0095 152.464 32.958 152.464 50.1642C152.464 67.3705 166.315 81.319 183.402 81.319Z" fill="#A0616A"/>
<path d="M160.31 65.7416C160.31 65.7416 166.139 109.99 157.172 114.957C148.204 119.924 210.529 120.375 210.529 120.375C210.529 120.375 196.629 81.9962 202.906 70.2567L160.31 65.7416Z" fill="#A0616A"/>
<path d="M256.039 120.599L250.856 144.367L239.896 194.652L239.568 197.405L235.785 229.286L233.269 250.465L231.582 264.692C221.325 270.001 213.891 273.665 213.891 273.665C213.891 273.665 213.251 270.437 212.221 266.306C205.022 268.48 191.702 272.085 180.414 272.805C184.525 277.419 186.414 281.753 183.851 284.952C176.119 294.594 144.194 274.394 133.028 266.861C132.768 268.665 132.67 270.488 132.734 272.309L124.189 265.692L125.034 250.465L126.461 224.702L128.253 192.393C127.688 191.01 127.214 189.59 126.835 188.144C124.218 178.773 121.042 160.059 118.606 144.367C116.645 131.737 115.173 121.065 114.861 118.794C114.819 118.498 114.798 118.345 114.798 118.345L162.1 97.2974C165.462 105.148 181.159 107.508 181.159 107.508C194.163 106.605 204.357 99.6996 204.357 99.6996L256.039 120.599Z" fill="#D0CDE1"/>
<path d="M217.48 264.637C217.48 264.637 215.477 265.328 212.221 266.306C205.022 268.48 191.702 272.085 180.414 272.805C170.695 273.432 162.483 271.924 160.981 265.539C160.337 262.794 161.25 260.536 163.24 258.68C169.181 253.134 184.697 251.147 197.003 250.465C200.478 250.275 203.693 250.186 206.368 250.152C210.912 250.093 213.891 250.186 213.891 250.186L213.962 250.465L217.48 264.637Z" fill="#A0616A"/>
<path d="M157.664 20.6947L151.879 18.3626C151.879 18.3626 163.975 4.95328 180.803 6.11936L176.07 0.872166C176.07 0.872166 187.639 -3.79191 198.157 8.45136C203.686 14.8874 210.083 22.4526 214.071 30.9747H220.266L217.68 36.7077L226.73 42.4406L217.441 41.4109C217.995 44.5503 218.08 47.7553 217.693 50.92C217.295 54.0857 215.69 56.9716 213.219 58.9688V58.9688C213.219 58.9688 206.045 44.0152 206.045 41.6832V47.5133C206.045 47.5133 200.26 42.2662 200.26 38.7681L197.105 42.8492L195.527 36.436L176.07 42.8492L179.225 37.6021L167.13 39.3512L171.863 32.938C171.863 32.938 158.19 40.5172 157.664 46.9304C157.138 53.3435 153.136 59.4203 153.136 59.4203C153.136 59.4203 142.413 29.4399 157.664 20.6947Z" fill="#2F2E41"/>
<path d="M289.667 229.867C286.516 233.307 278.707 238.488 269.241 244.098C265.72 246.182 261.971 248.33 258.147 250.465C249.021 255.562 239.467 260.612 231.582 264.692C221.325 270 213.891 273.665 213.891 273.665C213.891 273.665 213.251 270.437 212.221 266.306C210.841 260.777 208.762 253.63 206.596 250.465C206.52 250.355 206.444 250.253 206.368 250.152C205.737 249.317 205.102 248.83 204.475 248.83L235.785 229.286L249.316 220.838L239.568 197.405L227.341 168.011L234.721 144.367L242.138 120.599H256.039C256.039 120.599 260.642 130.716 266.527 144.824C267.407 146.934 268.316 149.133 269.241 151.404C281.349 181.06 296.445 222.474 289.667 229.867Z" fill="#D0CDE1"/>
<path d="M183.851 284.952C176.119 294.594 144.194 274.394 133.028 266.861C130.596 265.222 129.149 264.184 129.149 264.184L139.364 250.465L142.6 246.123C142.6 246.123 145.494 247.669 149.773 250.186C149.929 250.279 150.084 250.372 150.244 250.465C153.934 252.647 158.566 255.499 163.24 258.68C169.69 263.074 176.211 268.086 180.414 272.805C184.525 277.419 186.414 281.753 183.851 284.952Z" fill="#A0616A"/>
<path d="M149.773 250.186C148.631 250.181 147.491 250.275 146.365 250.465C136.693 252.139 133.84 260.955 133.028 266.861C132.768 268.665 132.67 270.488 132.734 272.309L124.189 265.692L121.075 263.281C113.582 260.65 106.906 255.977 101.116 250.465C96.0942 245.599 91.5892 240.219 87.6743 234.413C83.775 228.69 80.2989 222.686 77.2741 216.449C76.4301 214.709 75.9764 212.803 75.9452 210.866C75.9139 208.93 76.3058 207.01 77.0932 205.243L87.6743 181.497L103.14 146.79C103.254 145.964 103.378 145.156 103.515 144.367C106.582 126.657 114.798 118.794 114.798 118.794H121.075L125.274 144.367L130.491 176.137L126.835 188.144L118.387 215.873L126.461 224.702L149.773 250.186Z" fill="#D0CDE1"/>
<path d="M156.877 176.163L162.244 182.467C164.237 182.084 166.319 181.635 168.464 181.129L166.922 176.163L170.691 180.59C193.409 174.964 221.568 164.024 221.568 164.024C221.568 164.024 191.167 166.269 168.469 161.275C158.426 159.066 148.093 164.079 143.972 173.563C141.577 179.075 141.953 183.85 150.449 183.85C153.319 183.801 156.182 183.53 159.011 183.039L156.877 176.163Z" fill="#6C63FF"/>
<path d="M279.212 279.783V282.355C279.214 283.06 279.084 283.76 278.829 284.418C278.716 284.711 278.58 284.994 278.421 285.265C277.92 286.113 277.208 286.815 276.356 287.302C275.505 287.789 274.542 288.045 273.562 288.044H85.6886C84.7089 288.045 83.7459 287.789 82.894 287.302C82.0421 286.815 81.3306 286.113 80.8292 285.265C80.6706 284.994 80.5341 284.711 80.4211 284.418C80.1667 283.76 80.0368 283.06 80.0383 282.355V279.783C80.0381 279.036 80.1841 278.296 80.468 277.605C80.7518 276.915 81.168 276.288 81.6927 275.759C82.2175 275.231 82.8404 274.812 83.526 274.526C84.2117 274.24 84.9465 274.093 85.6886 274.093H96.5179V272.894C96.5179 272.863 96.5239 272.832 96.5358 272.803C96.5476 272.775 96.5649 272.748 96.5868 272.726C96.6087 272.704 96.6347 272.687 96.6633 272.675C96.6919 272.663 96.7226 272.657 96.7535 272.657H102.404C102.435 272.657 102.465 272.663 102.494 272.675C102.523 272.687 102.549 272.704 102.571 272.726C102.592 272.748 102.61 272.775 102.622 272.803C102.633 272.832 102.639 272.863 102.639 272.894V274.093H106.169V272.894C106.169 272.863 106.175 272.832 106.187 272.803C106.199 272.775 106.216 272.748 106.238 272.726C106.26 272.704 106.286 272.687 106.315 272.675C106.343 272.663 106.374 272.657 106.405 272.657H112.055C112.086 272.657 112.117 272.663 112.145 272.675C112.174 272.687 112.2 272.704 112.222 272.726C112.244 272.748 112.261 272.775 112.273 272.803C112.285 272.832 112.291 272.863 112.291 272.894V274.093H115.825V272.894C115.825 272.863 115.831 272.832 115.843 272.803C115.854 272.775 115.872 272.748 115.894 272.726C115.916 272.704 115.942 272.687 115.97 272.675C115.999 272.663 116.029 272.657 116.06 272.657H121.711C121.742 272.657 121.772 272.663 121.801 272.675C121.83 272.687 121.856 272.704 121.877 272.726C121.899 272.748 121.917 272.775 121.929 272.803C121.94 272.832 121.946 272.863 121.946 272.894V274.093H125.476V272.894C125.476 272.863 125.482 272.832 125.494 272.803C125.506 272.775 125.523 272.748 125.545 272.726C125.567 272.704 125.593 272.687 125.622 272.675C125.65 272.663 125.681 272.657 125.712 272.657H131.362C131.393 272.657 131.424 272.663 131.452 272.675C131.481 272.687 131.507 272.704 131.529 272.726C131.551 272.748 131.568 272.775 131.58 272.803C131.592 272.832 131.598 272.863 131.598 272.894V274.093H135.128V272.894C135.128 272.863 135.134 272.832 135.145 272.803C135.157 272.775 135.175 272.748 135.196 272.726C135.218 272.704 135.244 272.687 135.273 272.675C135.302 272.663 135.332 272.657 135.363 272.657H141.013C141.044 272.657 141.075 272.663 141.104 272.675C141.132 272.687 141.158 272.704 141.18 272.726C141.202 272.748 141.219 272.775 141.231 272.803C141.243 272.832 141.249 272.863 141.249 272.894V274.093H144.783V272.894C144.783 272.863 144.789 272.832 144.801 272.803C144.813 272.775 144.83 272.748 144.852 272.726C144.874 272.704 144.9 272.687 144.929 272.675C144.957 272.663 144.988 272.657 145.019 272.657H150.669C150.7 272.657 150.731 272.663 150.759 272.675C150.788 272.687 150.814 272.704 150.836 272.726C150.858 272.748 150.875 272.775 150.887 272.803C150.899 272.832 150.905 272.863 150.905 272.894V274.093H154.434V272.894C154.434 272.863 154.44 272.832 154.452 272.803C154.464 272.775 154.482 272.748 154.503 272.726C154.525 272.704 154.551 272.687 154.58 272.675C154.608 272.663 154.639 272.657 154.67 272.657H198.93C198.961 272.657 198.992 272.663 199.02 272.675C199.049 272.687 199.075 272.704 199.097 272.726C199.119 272.748 199.136 272.775 199.148 272.803C199.16 272.832 199.166 272.863 199.166 272.894V274.093H202.7V272.894C202.7 272.863 202.706 272.832 202.718 272.803C202.729 272.775 202.747 272.748 202.769 272.726C202.79 272.704 202.816 272.687 202.845 272.675C202.874 272.663 202.904 272.657 202.935 272.657H208.586C208.648 272.658 208.708 272.683 208.752 272.727C208.796 272.771 208.821 272.832 208.821 272.894V274.093H212.351V272.894C212.351 272.863 212.357 272.832 212.369 272.803C212.381 272.775 212.398 272.748 212.42 272.726C212.442 272.704 212.468 272.687 212.496 272.675C212.525 272.663 212.556 272.657 212.587 272.657H218.237C218.268 272.657 218.299 272.663 218.327 272.675C218.356 272.687 218.382 272.704 218.404 272.726C218.426 272.748 218.443 272.775 218.455 272.803C218.467 272.832 218.473 272.863 218.473 272.894V274.093H222.002V272.894C222.002 272.863 222.008 272.832 222.02 272.803C222.032 272.775 222.049 272.748 222.071 272.726C222.093 272.704 222.119 272.687 222.148 272.675C222.176 272.663 222.207 272.657 222.238 272.657H227.888C227.919 272.657 227.95 272.663 227.979 272.675C228.007 272.687 228.033 272.704 228.055 272.726C228.077 272.748 228.094 272.775 228.106 272.803C228.118 272.832 228.124 272.863 228.124 272.894V274.093H231.658V272.894C231.658 272.863 231.664 272.832 231.676 272.803C231.688 272.775 231.705 272.748 231.727 272.726C231.749 272.704 231.775 272.687 231.803 272.675C231.832 272.663 231.863 272.657 231.894 272.657H237.544C237.606 272.658 237.665 272.683 237.708 272.728C237.752 272.772 237.776 272.832 237.775 272.894V274.093H241.309V272.894C241.309 272.863 241.315 272.832 241.327 272.803C241.339 272.775 241.356 272.748 241.378 272.726C241.4 272.704 241.426 272.687 241.455 272.675C241.483 272.663 241.514 272.657 241.545 272.657H247.195C247.226 272.657 247.257 272.663 247.286 272.675C247.314 272.687 247.34 272.704 247.362 272.726C247.384 272.748 247.401 272.775 247.413 272.803C247.425 272.832 247.431 272.863 247.431 272.894V274.093H250.961V272.894C250.961 272.863 250.967 272.832 250.979 272.803C250.99 272.775 251.008 272.748 251.03 272.726C251.052 272.704 251.078 272.687 251.106 272.675C251.135 272.663 251.165 272.657 251.196 272.657H256.847C256.878 272.657 256.908 272.663 256.937 272.675C256.965 272.687 256.991 272.704 257.013 272.726C257.035 272.748 257.053 272.775 257.064 272.803C257.076 272.832 257.082 272.863 257.082 272.894V274.093H273.562C274.304 274.093 275.039 274.24 275.724 274.526C276.41 274.812 277.033 275.231 277.558 275.759C278.082 276.288 278.499 276.915 278.783 277.605C279.066 278.296 279.212 279.036 279.212 279.783V279.783Z" fill="#3F3D56"/>
<path d="M333.843 284.418H25.4538V285.265H333.843V284.418Z" fill="#3F3D56"/>
<path d="M264.085 171.481H194.059V170.028H162.306V171.481H91.9913C90.735 171.481 89.5302 171.984 88.6419 172.879C87.7536 173.773 87.2545 174.986 87.2545 176.251V272.81C87.2545 274.075 87.7536 275.288 88.6419 276.182C89.5302 277.077 90.735 277.58 91.9913 277.58H264.085C265.341 277.58 266.546 277.077 267.434 276.182C268.323 275.288 268.822 274.075 268.822 272.81V176.251C268.822 175.625 268.699 175.005 268.461 174.426C268.223 173.847 267.874 173.321 267.434 172.879C266.994 172.436 266.472 172.084 265.898 171.845C265.323 171.605 264.707 171.481 264.085 171.481V171.481Z" fill="#3F3D56"/>
<path d="M178.176 215.784C183.985 215.784 188.694 211.042 188.694 205.192C188.694 199.343 183.985 194.601 178.176 194.601C172.367 194.601 167.658 199.343 167.658 205.192C167.658 211.042 172.367 215.784 178.176 215.784Z" stroke="#D0CDE1" stroke-width="2" stroke-miterlimit="10"/>
<path d="M174.81 219.597C180.619 219.597 185.328 214.855 185.328 209.005C185.328 203.156 180.619 198.414 174.81 198.414C169.001 198.414 164.292 203.156 164.292 209.005C164.292 214.855 169.001 219.597 174.81 219.597Z" fill="#D0CDE1"/>
<path d="M45.6256 280.137H33.8454V292H45.6256V280.137Z" fill="#D0CDE1"/>
<path d="M38.475 270.817V285.221H52.7796V270.817H38.475ZM52.1569 284.594H39.0935V271.444H52.1569V284.594Z" fill="#3F3D56"/>
<path d="M318.253 280.137H306.473V292H318.253V280.137Z" fill="#D0CDE1"/>
<path d="M311.103 270.817V285.221H325.407V270.817H311.103ZM324.785 284.594H311.721V271.444H324.785V284.594Z" fill="#3F3D56"/>
<path d="M39.7919 97.4911C58.2273 97.4911 73.1722 82.4416 73.1722 63.8772C73.1722 45.3128 58.2273 30.2634 39.7919 30.2634C21.3565 30.2634 6.41165 45.3128 6.41165 63.8772C6.41165 82.4416 21.3565 97.4911 39.7919 97.4911Z" fill="#6C63FF"/>
<path d="M51.4244 23.9329C48.402 23.5458 45.3431 23.5458 42.3207 23.9329C35.5873 24.8232 29.2488 27.6399 24.0574 32.0489C18.866 36.4578 15.0395 42.274 13.0321 48.8071C12.1191 51.7844 11.6021 54.8705 11.4946 57.9847C11.4794 58.4176 11.4693 58.8556 11.4693 59.2936C11.4787 68.7459 15.2117 77.8084 21.849 84.4922C28.4864 91.1761 37.4859 94.9352 46.8726 94.9446C47.6262 94.9446 48.3798 94.9192 49.1232 94.8733C50.8685 94.763 52.603 94.5213 54.3124 94.1501C62.4752 92.3825 69.755 87.7669 74.8662 81.1186C79.9774 74.4702 82.5911 66.2169 82.2456 57.8163C81.9001 49.4157 78.6176 41.4083 72.978 35.2083C67.3384 29.0084 59.7044 25.0148 51.4245 23.9329H51.4244ZM57.9538 92.0824H57.9488C55.0975 93.0621 52.1298 93.6564 49.1232 93.8496C48.3797 93.9006 47.6262 93.926 46.8726 93.926C37.7547 93.9148 29.0135 90.2624 22.5662 83.77C16.1189 77.2776 12.4919 68.4752 12.4808 59.2936C12.4808 58.8556 12.4909 58.4176 12.5061 57.9847C12.8538 49.0367 16.6252 40.571 23.0309 34.3597C29.4366 28.1484 37.98 24.6731 46.8726 24.6612C55.0204 24.6616 62.9035 27.5749 69.1174 32.8821C75.3313 38.1892 79.4723 45.5454 80.8028 53.6402C82.1332 61.7349 80.5666 70.0424 76.3821 77.0826C72.1976 84.1228 65.667 89.4384 57.9538 92.0824H57.9538Z" fill="#3F3D56"/>
<path d="M47.3783 26.6984H46.3668V33.8286H47.3783V26.6984Z" fill="#3F3D56"/>
<path d="M24.3421 35.8851L23.6268 36.6053L28.6336 41.6472L29.3488 40.9269L24.3421 35.8851Z" fill="#3F3D56"/>
<path d="M14.5038 58.7843V59.8029H21.5845V58.7843H14.5038Z" fill="#3F3D56"/>
<path d="M23.6268 81.9818L24.3421 82.702L29.3488 77.6602L28.6336 76.9399L23.6268 81.9818Z" fill="#3F3D56"/>
<path d="M64.3963 40.927L65.1116 41.6472L70.1184 36.6054L69.4031 35.8851L64.3963 40.927Z" fill="#3F3D56"/>
<path d="M72.1606 58.7843V59.8029H79.2413V58.7843H72.1606Z" fill="#3F3D56"/>
<path d="M65.1116 76.9399L64.3963 77.6602L69.4031 82.702L70.1184 81.9817L65.1116 76.9399Z" fill="#3F3D56"/>
<path d="M47.3783 84.7587H46.3668V91.8889H47.3783V84.7587Z" fill="#3F3D56"/>
<path d="M48.3899 57.2564C47.9521 56.9258 47.4197 56.7471 46.8726 56.7471C46.3254 56.7471 45.793 56.9258 45.3553 57.2564C45.0556 57.4856 44.8089 57.7775 44.6321 58.112C44.408 58.5427 44.3111 59.029 44.3528 59.5135C44.3944 59.9979 44.5729 60.4602 44.8672 60.8457C45.1615 61.2312 45.5592 61.5239 46.0134 61.689C46.4675 61.8542 46.9591 61.8849 47.4301 61.7777C47.9011 61.6705 48.3317 61.4297 48.6712 61.0839C49.0106 60.738 49.2446 60.3015 49.3455 59.826C49.4465 59.3505 49.4101 58.8559 49.2408 58.4005C49.0714 57.9452 48.7761 57.5481 48.3899 57.2564H48.3899ZM46.8726 60.8215C46.4705 60.8203 46.0853 60.6589 45.801 60.3726C45.5167 60.0864 45.3565 59.6984 45.3553 59.2936C45.3572 58.9846 45.4506 58.6831 45.6234 58.4278C45.7716 58.2116 45.9726 58.0377 46.2071 57.9227C46.4416 57.8077 46.7016 57.7556 46.9619 57.7714C47.2223 57.7872 47.4742 57.8704 47.6933 58.0129C47.9123 58.1554 48.0912 58.3525 48.2125 58.585C48.3338 58.8175 48.3936 59.0775 48.3859 59.3401C48.3782 59.6026 48.3033 59.8587 48.1686 60.0836C48.0339 60.3085 47.8438 60.4945 47.6168 60.6238C47.3897 60.7531 47.1334 60.8211 46.8726 60.8215V60.8215Z" fill="#3F3D56"/>
<path d="M51.4244 14.9845H42.3207V24.1519H51.4244V14.9845Z" fill="#3F3D56"/>
<path d="M46.8726 16.5124C53.5764 16.5124 59.0109 14.5742 59.0109 12.1833C59.0109 9.79243 53.5764 7.85425 46.8726 7.85425C40.1688 7.85425 34.7343 9.79243 34.7343 12.1833C34.7343 14.5742 40.1688 16.5124 46.8726 16.5124Z" fill="#3F3D56"/>
<path d="M48.3899 39.9402H45.3553V57.2564H48.3899V39.9402Z" fill="#3F3D56"/>
<path d="M95.0832 93.3928H0V94.4114H95.0832V93.3928Z" fill="#3F3D56"/>
<path d="M63.3581 254.095C63.7506 267.631 55.8965 272.592 46.0398 272.882C45.8108 272.889 45.5829 272.893 45.356 272.894C44.8989 272.898 44.4463 272.89 43.998 272.871C35.0836 272.499 28.0274 267.734 27.6623 255.145C27.2845 242.117 43.3421 225.191 44.5469 223.938L44.5491 223.937C44.5948 223.89 44.6183 223.866 44.6183 223.866C44.6183 223.866 62.9655 240.56 63.3581 254.095Z" fill="#D0CDE1"/>
<path d="M45.3301 270.831L51.5915 261.454L45.3429 271.839L45.356 272.894C44.8989 272.898 44.4462 272.89 43.998 272.871L44.3086 259.309L44.3001 259.204L44.3115 259.184L44.3412 257.903L37.4844 247.878L44.3331 256.943L44.3575 257.214L44.592 246.967L38.6695 236.574L44.6089 245.167L44.5469 223.939L44.547 223.868L44.549 223.937L44.9422 240.669L50.3398 233.872L44.9599 242.11L45.0777 251.276L50.0446 242.33L45.0959 252.623L45.1615 257.72L52.3848 245.259L45.1835 259.497L45.3301 270.831Z" fill="#3F3D56"/>
<path d="M335.986 254.095C336.378 267.631 328.524 272.592 318.668 272.882C318.439 272.889 318.211 272.893 317.984 272.894C317.527 272.898 317.074 272.89 316.626 272.871C307.711 272.499 300.655 267.734 300.29 255.145C299.912 242.117 315.97 225.191 317.175 223.938L317.177 223.937C317.223 223.89 317.246 223.866 317.246 223.866C317.246 223.866 335.593 240.56 335.986 254.095Z" fill="#D0CDE1"/>
<path d="M317.958 270.831L324.219 261.454L317.971 271.839L317.984 272.894C317.527 272.898 317.074 272.89 316.626 272.871L316.936 259.309L316.928 259.204L316.939 259.184L316.969 257.903L310.112 247.878L316.961 256.943L316.985 257.214L317.22 246.967L311.297 236.574L317.237 245.167L317.175 223.939L317.175 223.868L317.177 223.937L317.57 240.669L322.968 233.872L317.588 242.11L317.706 251.276L322.672 242.33L317.724 252.623L317.789 257.72L325.013 245.259L317.811 259.497L317.958 270.831Z" fill="#3F3D56"/>
</svg>
