<svg width="108" height="29" viewBox="0 0 108 29" fill="none" xmlns="http://www.w3.org/2000/svg">
<path d="M21.14 23.221V11.346C21.14 10.928 21.254 10.6177 21.482 10.415C21.7227 10.2123 22.0203 10.111 22.375 10.111C22.8437 10.111 23.2047 10.1933 23.458 10.358C23.7113 10.5227 23.99 10.8773 24.294 11.422L26.631 15.678L28.968 11.422C29.272 10.8773 29.5507 10.5227 29.804 10.358C30.07 10.1933 30.4373 10.111 30.906 10.111C31.2607 10.111 31.552 10.2123 31.78 10.415C32.0207 10.6177 32.141 10.928 32.141 11.346V23.221C32.141 23.4617 32.0143 23.6517 31.761 23.791C31.5203 23.9303 31.2353 24 30.906 24C30.564 24 30.2727 23.9303 30.032 23.791C29.7913 23.6517 29.671 23.4617 29.671 23.221V15.051L27.448 19.003C27.2707 19.3323 26.992 19.497 26.612 19.497C26.2447 19.497 25.9723 19.3323 25.795 19.003L23.61 14.899V23.221C23.61 23.4617 23.4833 23.6517 23.23 23.791C22.9893 23.9303 22.7043 24 22.375 24C22.033 24 21.7417 23.9303 21.501 23.791C21.2603 23.6517 21.14 23.4617 21.14 23.221ZM33.3992 27.154C33.3992 26.47 33.6082 26.128 34.0262 26.128C34.6215 26.128 35.2042 25.9127 35.7742 25.482C36.3568 25.0513 36.6798 24.3357 36.7432 23.335L33.4752 16.343C33.4245 16.2163 33.3992 16.1087 33.3992 16.02C33.3992 15.716 33.5828 15.4437 33.9502 15.203C34.3302 14.9623 34.6912 14.842 35.0332 14.842C35.4132 14.842 35.6475 14.9813 35.7362 15.26L38.0162 20.941L39.8592 15.26C39.9478 14.9813 40.1632 14.842 40.5052 14.842C40.8345 14.842 41.1955 14.9687 41.5882 15.222C41.9808 15.4627 42.1772 15.7413 42.1772 16.058C42.1772 16.1593 42.1582 16.2543 42.1202 16.343L39.3462 23.43L39.0232 24.266C38.8712 24.6967 38.7572 24.9943 38.6812 25.159C38.6178 25.3237 38.4975 25.577 38.3202 25.919C38.1555 26.2737 38.0035 26.527 37.8642 26.679C37.7375 26.8437 37.5538 27.04 37.3132 27.268C37.0725 27.5087 36.8255 27.6797 36.5722 27.781C36.3315 27.895 36.0338 27.99 35.6792 28.066C35.3245 28.1547 34.9382 28.199 34.5202 28.199C34.1528 28.199 33.8742 28.1293 33.6842 27.99C33.4942 27.8507 33.3992 27.572 33.3992 27.154ZM42.9673 20.276V18.756C42.9673 17.5907 43.3093 16.6533 43.9933 15.944C44.6773 15.222 45.7033 14.861 47.0713 14.861C47.9326 14.861 48.6546 15.013 49.2373 15.317C49.82 15.621 50.1113 15.963 50.1113 16.343C50.1113 16.609 50.0163 16.875 49.8263 17.141C49.6363 17.407 49.4083 17.54 49.1423 17.54C49.0663 17.54 48.8383 17.4513 48.4583 17.274C48.091 17.0967 47.692 17.008 47.2613 17.008C46.0326 17.008 45.4183 17.5907 45.4183 18.756V20.276C45.4183 21.4413 46.039 22.024 47.2803 22.024C47.711 22.024 48.11 21.929 48.4773 21.739C48.8446 21.549 49.079 21.454 49.1803 21.454C49.4843 21.454 49.7313 21.5807 49.9213 21.834C50.124 22.0873 50.2253 22.347 50.2253 22.613C50.2253 23.0057 49.915 23.3667 49.2943 23.696C48.6863 24.0127 47.9516 24.171 47.0903 24.171C45.7096 24.171 44.6773 23.8163 43.9933 23.107C43.3093 22.3977 42.9673 21.454 42.9673 20.276ZM50.9776 21.644C50.9776 20.618 51.3576 19.9023 52.1176 19.497C52.8902 19.079 53.9859 18.87 55.4046 18.87H56.1836V18.604C56.1836 18.11 56.0442 17.6983 55.7656 17.369C55.4996 17.027 55.0372 16.856 54.3786 16.856C53.9099 16.856 53.4729 16.9573 53.0676 17.16C52.6622 17.35 52.4152 17.445 52.3266 17.445C52.0859 17.445 51.8896 17.3183 51.7376 17.065C51.5856 16.799 51.5096 16.5457 51.5096 16.305C51.5096 15.8617 51.8326 15.5133 52.4786 15.26C53.1372 14.994 53.8719 14.861 54.6826 14.861C55.9746 14.861 56.9562 15.222 57.6276 15.944C58.2989 16.6533 58.6346 17.5273 58.6346 18.566V20.827C58.6346 21.2577 58.6916 21.549 58.8056 21.701C58.9196 21.853 59.0779 21.9417 59.2806 21.967C59.6606 22.0303 59.8506 22.347 59.8506 22.917C59.8506 23.753 59.4642 24.171 58.6916 24.171C58.1216 24.171 57.6339 24.0317 57.2286 23.753C56.8359 23.4743 56.6079 23.1133 56.5446 22.67C55.6579 23.6707 54.6509 24.171 53.5236 24.171C52.7889 24.171 52.1809 23.9557 51.6996 23.525C51.2182 23.0943 50.9776 22.4673 50.9776 21.644ZM53.4286 21.34C53.4286 21.6693 53.5172 21.9227 53.6946 22.1C53.8846 22.2647 54.1126 22.347 54.3786 22.347C54.8092 22.347 55.2146 22.157 55.5946 21.777C55.9872 21.397 56.1836 20.979 56.1836 20.523V20.124H55.8986C55.1132 20.124 54.5052 20.2063 54.0746 20.371C53.6439 20.523 53.4286 20.846 53.4286 21.34ZM60.8987 23.221V10.472C60.8987 10.244 61.0064 10.0603 61.2217 9.921C61.4497 9.78167 61.7474 9.712 62.1147 9.712C62.4567 9.712 62.748 9.78167 62.9887 9.921C63.2294 10.0603 63.3497 10.244 63.3497 10.472V16.305C63.5397 15.8997 63.8437 15.5577 64.2617 15.279C64.6797 15.0003 65.1737 14.861 65.7437 14.861C66.6177 14.861 67.3777 15.241 68.0237 16.001C68.6824 16.761 69.0117 17.6667 69.0117 18.718V23.221C69.0117 23.4617 68.885 23.6517 68.6317 23.791C68.391 23.9303 68.106 24 67.7767 24C67.46 24 67.175 23.9303 66.9217 23.791C66.681 23.6517 66.5607 23.4617 66.5607 23.221V18.718C66.5607 18.2873 66.396 17.8947 66.0667 17.54C65.7374 17.1853 65.351 17.008 64.9077 17.008C64.4897 17.008 64.1224 17.1663 63.8057 17.483C63.5017 17.7997 63.3497 18.2113 63.3497 18.718V23.221C63.3497 23.411 63.223 23.5883 62.9697 23.753C62.729 23.9177 62.444 24 62.1147 24C61.7727 24 61.4814 23.924 61.2407 23.772C61.0127 23.6073 60.8987 23.4237 60.8987 23.221ZM70.9222 23.24V10.871C70.9222 10.6683 71.0236 10.491 71.2262 10.339C71.4289 10.187 71.6886 10.111 72.0052 10.111H75.3682C76.7236 10.111 77.8066 10.4593 78.6172 11.156C79.4279 11.8527 79.8332 12.9547 79.8332 14.462V19.649C79.8332 21.1563 79.4279 22.2583 78.6172 22.955C77.8066 23.6517 76.7236 24 75.3682 24H72.0052C71.6886 24 71.4289 23.924 71.2262 23.772C71.0236 23.62 70.9222 23.4427 70.9222 23.24ZM73.3922 21.834H75.3682C76.6982 21.834 77.3632 21.1057 77.3632 19.649V14.462C77.3632 13.0053 76.6982 12.277 75.3682 12.277H73.3922V21.834ZM81.4117 20.276V18.661C81.4117 17.6223 81.817 16.7293 82.6277 15.982C83.4384 15.2347 84.42 14.861 85.5727 14.861C86.6494 14.861 87.5677 15.203 88.3277 15.887C89.1004 16.5583 89.4867 17.407 89.4867 18.433C89.4867 18.813 89.436 19.1297 89.3347 19.383C89.246 19.6237 89.1004 19.7947 88.8977 19.896C88.7077 19.9973 88.5304 20.0607 88.3657 20.086C88.201 20.1113 87.9857 20.124 87.7197 20.124H83.8627V20.409C83.8627 20.9537 84.0654 21.397 84.4707 21.739C84.876 22.0683 85.4144 22.233 86.0857 22.233C86.567 22.233 87.042 22.1127 87.5107 21.872C87.9794 21.6313 88.2834 21.511 88.4227 21.511C88.6887 21.511 88.9104 21.6377 89.0877 21.891C89.265 22.1317 89.3537 22.366 89.3537 22.594C89.3537 22.9487 89.0307 23.3033 88.3847 23.658C87.7514 24 86.9597 24.171 86.0097 24.171C84.6544 24.171 83.546 23.8163 82.6847 23.107C81.836 22.385 81.4117 21.4413 81.4117 20.276ZM83.8627 18.68H86.6367C86.8394 18.68 86.9787 18.6483 87.0547 18.585C87.1434 18.509 87.1877 18.3697 87.1877 18.167C87.1877 17.7237 87.023 17.3627 86.6937 17.084C86.377 16.8053 85.9844 16.666 85.5157 16.666C85.0724 16.666 84.686 16.8053 84.3567 17.084C84.0274 17.35 83.8627 17.7047 83.8627 18.148V18.68ZM90.1208 15.906C90.1208 15.64 90.3045 15.3993 90.6718 15.184C91.0518 14.9687 91.4128 14.861 91.7548 14.861C92.1222 14.861 92.3628 15.0003 92.4768 15.279L94.5858 20.789L96.6948 15.317C96.8088 15.013 97.0432 14.861 97.3978 14.861C97.7018 14.861 98.0502 14.975 98.4428 15.203C98.8355 15.4183 99.0318 15.659 99.0318 15.925C99.0318 16.039 99.0065 16.1467 98.9558 16.248L95.7068 23.772C95.5675 24.0633 95.1938 24.209 94.5858 24.209C93.9778 24.209 93.6105 24.0633 93.4838 23.772L90.2158 16.248C90.1525 16.1593 90.1208 16.0453 90.1208 15.906Z" fill="white"/>
<path d="M9 9L16.7942 22.5H1.20577L9 9Z" fill="#FFC278"/>
<path d="M12.5 12L18.9952 23.25H6.00481L12.5 12Z" fill="#FE9A22"/>
</svg>
